REM MD5 5bf713a96ecfd82078c4554027dbc384
FILE "Eidos Demo CD Volume 4 (USA).bin" BINARY
  TRACK 01 MODE2/2352
    INDEX 01 00:00:00
  TRACK 02 AUDIO
    INDEX 00 20:32:15
    INDEX 01 20:34:15
  TRACK 03 AUDIO
    INDEX 00 23:00:09
    INDEX 01 23:02:09
  TRACK 04 AUDIO
    INDEX 00 23:22:64
    INDEX 01 23:24:64
  TRACK 05 AUDIO
    INDEX 00 25:59:42
    INDEX 01 26:01:42
  TRACK 06 AUDIO
    INDEX 00 28:20:60
    INDEX 01 28:22:60
REM LEADOUT 28:28:56
